<?xml version="1.0" encoding="UTF-8" standalone="no"?>
<svg
   xmlns:dc="http://purl.org/dc/elements/1.1/"
   xmlns:cc="http://creativecommons.org/ns#"
   xmlns:rdf="http://www.w3.org/1999/02/22-rdf-syntax-ns#"
   xmlns:svg="http://www.w3.org/2000/svg"
   xmlns="http://www.w3.org/2000/svg"
   xmlns:sodipodi="http://sodipodi.sourceforge.net/DTD/sodipodi-0.dtd"
   xmlns:inkscape="http://www.inkscape.org/namespaces/inkscape"
   viewBox="0 0 582.48834 299.26587"
   height="299.26587"
   width="582.48834"
   xml:space="preserve"
   id="svg2"
   version="1.1"
   sodipodi:docname="LearningRateJustRight.svg"
   inkscape:version="0.92.2pre0 (973e216, 2017-07-25)"><sodipodi:namedview
     pagecolor="#ffffff"
     bordercolor="#666666"
     borderopacity="1"
     objecttolerance="10"
     gridtolerance="10"
     guidetolerance="10"
     inkscape:pageopacity="0"
     inkscape:pageshadow="2"
     inkscape:window-width="1626"
     inkscape:window-height="867"
     id="namedview67"
     showgrid="false"
     inkscape:zoom="1.939953"
     inkscape:cx="291.24417"
     inkscape:cy="149.63293"
     inkscape:window-x="0"
     inkscape:window-y="621"
     inkscape:window-maximized="0"
     inkscape:current-layer="svg2" /><metadata
     id="metadata8"><rdf:RDF><cc:Work
         rdf:about=""><dc:format>image/svg+xml</dc:format><dc:type
           rdf:resource="http://purl.org/dc/dcmitype/StillImage" /><dc:title /></cc:Work></rdf:RDF></metadata><desc
     id="desc3">La misma curva con forma de U. El rastro de puntos llega al punto mínimo en alrededor de ocho pasos.</desc><defs
     id="defs6"><clipPath
       id="clipPath22"
       clipPathUnits="userSpaceOnUse"><path
         id="path20"
         d="M 0,0 H 365760 V 205740 H 0 Z" /></clipPath></defs><path
     id="path36"
     style="fill:#000000;fill-opacity:0;fill-rule:evenodd;stroke:none;stroke-width:0.00262467"
     d="M 209.577,242.20423 208.22268,-3.272572e-6" /><path
     id="path38"
     style="fill:none;stroke:#595959;stroke-width:2.9999938;stroke-linecap:butt;stroke-linejoin:round;stroke-miterlimit:14.3355875;stroke-dasharray:none;stroke-opacity:1"
     d="M 209.51949,231.92315 208.28019,10.281076" /><path
     id="path40"
     style="fill:#595959;fill-opacity:1;fill-rule:evenodd;stroke:#595959;stroke-width:2.9999938;stroke-linecap:butt;stroke-linejoin:miter;stroke-miterlimit:11.47371292;stroke-dasharray:none;stroke-opacity:1"
     d="m 209.51949,231.92315 -3.39253,-3.35483 3.42553,9.25027 3.32186,-9.28799 z" /><path
     id="path42"
     style="fill:#595959;fill-opacity:1;fill-rule:evenodd;stroke:#595959;stroke-width:2.9999938;stroke-linecap:butt;stroke-linejoin:miter;stroke-miterlimit:11.47371292;stroke-dasharray:none;stroke-opacity:1"
     d="m 208.28019,10.281076 3.39253,3.354827 -3.42553,-9.2502797 -3.32186,9.2879997 z" /><path
     id="path50"
     style="fill:#000000;fill-opacity:0;fill-rule:evenodd;stroke:none;stroke-width:0.00262467"
     d="m 249.58648,22.568209 c 6.86928,26.3004 13.48748,122.586881 41.21572,157.802371 27.72823,35.21545 89.29984,62.40605 125.15373,53.49044 35.85387,-8.91566 69.78093,-70.54285 89.96948,-106.98427 20.18849,-36.441396 25.968,-93.053487 31.16158,-111.66418" /><path
     id="path52"
     style="fill:none;stroke:#595959;stroke-width:7.99998379;stroke-linecap:butt;stroke-linejoin:round;stroke-miterlimit:14.3355875;stroke-dasharray:none;stroke-opacity:1"
     d="m 249.58648,22.568209 c 6.86928,26.3004 13.48748,122.586881 41.21572,157.802371 27.72823,35.21545 89.29984,62.40605 125.15373,53.49044 35.85387,-8.91566 69.78093,-70.54285 89.96948,-106.98427 20.18849,-36.441396 25.968,-93.053487 31.16158,-111.66418" /><path
     d="m 262.83543,134.06797 v 0 c 0,-3.60942 2.926,-6.53543 6.53541,-6.53543 v 0 c 1.73331,0 3.39561,0.68856 4.62125,1.91419 1.22562,1.22562 1.91418,2.88793 1.91418,4.62124 v 0 c 0,3.60941 -2.926,6.53541 -6.53543,6.53541 v 0 c -3.60941,0 -6.53541,-2.926 -6.53541,-6.53541 z"
     style="fill:#fff2cc;fill-opacity:1;fill-rule:evenodd;stroke:none;stroke-width:0.00262467"
     id="path58" /><path
     id="path60"
     style="fill:none;stroke:#595959;stroke-width:0.99999797;stroke-linecap:butt;stroke-linejoin:round;stroke-miterlimit:14.3355875;stroke-dasharray:none;stroke-opacity:1"
     d="m 262.83543,134.06797 v 0 c 0,-3.60942 2.926,-6.53543 6.53541,-6.53543 v 0 c 1.73331,0 3.39561,0.68856 4.62125,1.91419 1.22562,1.22562 1.91418,2.88793 1.91418,4.62124 v 0 c 0,3.60941 -2.926,6.53541 -6.53543,6.53541 v 0 c -3.60941,0 -6.53541,-2.926 -6.53541,-6.53541 z" /><path
     d="m 0.49999899,40.385742 v 0 c 0,-7.256519 5.88256681,-13.139079 13.13908201,-13.139079 h 77.585144 v 0 h 38.881805 12.78213 c 3.4847,0 6.82668,1.384293 9.29074,3.848346 2.46405,2.464054 3.84834,5.806027 3.84834,9.290733 V 73.233448 L 259.89767,130.04446 156.02724,92.942061 v 0 c 0,7.256519 -5.88256,13.139079 -13.13908,13.139079 H 130.10603 91.224225 v 0 H 13.639081 c -7.2565152,0 -13.13908201,-5.88256 -13.13908201,-13.139079 v 0 -19.708613 0 z"
     style="fill:#fce5cd;fill-opacity:1;fill-rule:evenodd;stroke:none;stroke-width:0.00262467"
     id="path66" /><path
     id="path68"
     style="fill:none;stroke:#595959;stroke-width:0.99999797;stroke-linecap:butt;stroke-linejoin:round;stroke-miterlimit:14.3355875;stroke-dasharray:none;stroke-opacity:1"
     d="m 0.49999899,40.385742 v 0 c 0,-7.256519 5.88256681,-13.139079 13.13908201,-13.139079 h 77.585144 v 0 h 38.881805 12.78213 c 3.4847,0 6.82668,1.384293 9.29074,3.848346 2.46405,2.464054 3.84834,5.806027 3.84834,9.290733 V 73.233448 L 259.89767,130.04446 156.02724,92.942061 v 0 c 0,7.256519 -5.88256,13.139079 -13.13908,13.139079 H 130.10603 91.224225 v 0 H 13.639081 c -7.2565152,0 -13.13908201,-5.88256 -13.13908201,-13.139079 v 0 -19.708613 0 z" /><text
     id="text78"
     style="font-variant:normal;font-weight:normal;font-size:18.66662788px;font-family:Arial;-inkscape-font-specification:ArialMT;writing-mode:lr-tb;fill:#000000;fill-opacity:1;fill-rule:nonzero;stroke:none;stroke-width:0.99999797"
     x="24.854748"
     y="73.583893"><tspan
       id="tspan76"
       y="73.583893"
       x="11.521416"
       style="font-style:normal;font-variant:normal;font-weight:normal;font-stretch:normal;font-family:sans-serif;-inkscape-font-specification:sans-serif;stroke-width:0.99999797">punto de partida</tspan></text>
<path
     id="path88"
     style="fill:#000000;fill-opacity:0;fill-rule:evenodd;stroke:none;stroke-width:0.00262467"
     d="m 275.90627,134.06797 h 14.89761" /><path
     id="path90"
     style="fill:none;stroke:#ff0000;stroke-width:0.99999797;stroke-linecap:butt;stroke-linejoin:round;stroke-miterlimit:14.3355875;stroke-dasharray:none;stroke-opacity:1"
     d="m 275.90627,134.06797 h 8.89761" /><path
     id="path92"
     style="fill:#ff0000;fill-opacity:1;fill-rule:evenodd;stroke:#ff0000;stroke-width:0.99999797;stroke-linecap:butt;stroke-linejoin:miter;stroke-miterlimit:11.47371292;stroke-dasharray:none;stroke-opacity:1"
     d="m 284.80388,135.7197 4.53811,-1.65173 -4.53811,-1.65174 z" /><path
     d="m 284.27633,181.92877 v 0 c 0,-3.60943 2.926,-6.53543 6.53542,-6.53543 v 0 c 1.7333,0 3.39561,0.68855 4.62125,1.91419 1.22561,1.22562 1.91417,2.88793 1.91417,4.62124 v 0 c 0,3.60941 -2.92601,6.53541 -6.53542,6.53541 v 0 c -3.60942,0 -6.53542,-2.926 -6.53542,-6.53541 z"
     style="fill:#fff2cc;fill-opacity:1;fill-rule:evenodd;stroke:none;stroke-width:0.00262467"
     id="path98" /><path
     id="path100"
     style="fill:none;stroke:#595959;stroke-width:0.99999797;stroke-linecap:butt;stroke-linejoin:round;stroke-miterlimit:14.3355875;stroke-dasharray:none;stroke-opacity:1"
     d="m 284.27633,181.92877 v 0 c 0,-3.60943 2.926,-6.53543 6.53542,-6.53543 v 0 c 1.7333,0 3.39561,0.68855 4.62125,1.91419 1.22561,1.22562 1.91417,2.88793 1.91417,4.62124 v 0 c 0,3.60941 -2.92601,6.53541 -6.53542,6.53541 v 0 c -3.60942,0 -6.53542,-2.926 -6.53542,-6.53541 z" /><path
     id="path108"
     style="fill:#000000;fill-opacity:0;fill-rule:evenodd;stroke:none;stroke-width:0.00262467"
     d="m 297.34717,181.92877 h 14.8976" /><path
     id="path110"
     style="fill:none;stroke:#ff0000;stroke-width:0.99999797;stroke-linecap:butt;stroke-linejoin:round;stroke-miterlimit:14.3355875;stroke-dasharray:none;stroke-opacity:1"
     d="m 297.34717,181.92877 h 8.89762" /><path
     id="path112"
     style="fill:#ff0000;fill-opacity:1;fill-rule:evenodd;stroke:#ff0000;stroke-width:0.99999797;stroke-linecap:butt;stroke-linejoin:miter;stroke-miterlimit:11.47371292;stroke-dasharray:none;stroke-opacity:1"
     d="m 306.24479,183.58049 4.5381,-1.65172 -4.5381,-1.65174 z" /><path
     d="m 305.70936,203.43266 v 0 c 0,-3.60941 2.926,-6.53543 6.53541,-6.53543 v 0 c 1.73331,0 3.39562,0.68855 4.62126,1.91419 1.22561,1.22563 1.91417,2.88793 1.91417,4.62124 v 0 c 0,3.60941 -2.92601,6.53541 -6.53543,6.53541 v 0 c -3.60941,0 -6.53541,-2.926 -6.53541,-6.53541 z"
     style="fill:#fff2cc;fill-opacity:1;fill-rule:evenodd;stroke:none;stroke-width:0.00262467"
     id="path118" /><path
     id="path120"
     style="fill:none;stroke:#595959;stroke-width:0.99999797;stroke-linecap:butt;stroke-linejoin:round;stroke-miterlimit:14.3355875;stroke-dasharray:none;stroke-opacity:1"
     d="m 305.70936,203.43266 v 0 c 0,-3.60941 2.926,-6.53543 6.53541,-6.53543 v 0 c 1.73331,0 3.39562,0.68855 4.62126,1.91419 1.22561,1.22563 1.91417,2.88793 1.91417,4.62124 v 0 c 0,3.60941 -2.92601,6.53541 -6.53543,6.53541 v 0 c -3.60941,0 -6.53541,-2.926 -6.53541,-6.53541 z" /><path
     id="path128"
     style="fill:#000000;fill-opacity:0;fill-rule:evenodd;stroke:none;stroke-width:0.00262467"
     d="m 318.7802,203.43266 h 14.8976" /><path
     id="path130"
     style="fill:none;stroke:#ff0000;stroke-width:0.99999797;stroke-linecap:butt;stroke-linejoin:round;stroke-miterlimit:14.3355875;stroke-dasharray:none;stroke-opacity:1"
     d="m 318.7802,203.43266 h 8.89761" /><path
     id="path132"
     style="fill:#ff0000;fill-opacity:1;fill-rule:evenodd;stroke:#ff0000;stroke-width:0.99999797;stroke-linecap:butt;stroke-linejoin:miter;stroke-miterlimit:11.47371292;stroke-dasharray:none;stroke-opacity:1"
     d="m 327.67781,205.08438 4.53811,-1.65172 -4.53811,-1.65173 z" /><path
     d="m 326.00065,216.5035 v 0 c 0,-3.60942 2.926,-6.53543 6.53543,-6.53543 v 0 c 1.73329,0 3.3956,0.68855 4.62124,1.91419 1.22561,1.22562 1.91417,2.88793 1.91417,4.62124 v 0 c 0,3.60941 -2.926,6.53541 -6.53541,6.53541 v 0 c -3.60943,0 -6.53543,-2.926 -6.53543,-6.53541 z"
     style="fill:#fff2cc;fill-opacity:1;fill-rule:evenodd;stroke:none;stroke-width:0.00262467"
     id="path138" /><path
     id="path140"
     style="fill:none;stroke:#595959;stroke-width:0.99999797;stroke-linecap:butt;stroke-linejoin:round;stroke-miterlimit:14.3355875;stroke-dasharray:none;stroke-opacity:1"
     d="m 326.00065,216.5035 v 0 c 0,-3.60942 2.926,-6.53543 6.53543,-6.53543 v 0 c 1.73329,0 3.3956,0.68855 4.62124,1.91419 1.22561,1.22562 1.91417,2.88793 1.91417,4.62124 v 0 c 0,3.60941 -2.926,6.53541 -6.53541,6.53541 v 0 c -3.60943,0 -6.53543,-2.926 -6.53543,-6.53541 z" /><path
     id="path148"
     style="fill:#000000;fill-opacity:0;fill-rule:evenodd;stroke:none;stroke-width:0.00262467"
     d="M 339.07149,216.5035 H 353.9691" /><path
     id="path150"
     style="fill:none;stroke:#ff0000;stroke-width:0.99999797;stroke-linecap:butt;stroke-linejoin:round;stroke-miterlimit:14.3355875;stroke-dasharray:none;stroke-opacity:1"
     d="m 339.07149,216.5035 h 8.89763" /><path
     id="path152"
     style="fill:#ff0000;fill-opacity:1;fill-rule:evenodd;stroke:#ff0000;stroke-width:0.99999797;stroke-linecap:butt;stroke-linejoin:miter;stroke-miterlimit:11.47371292;stroke-dasharray:none;stroke-opacity:1"
     d="m 347.96912,218.15522 4.53809,-1.65172 -4.53809,-1.65174 z" /><path
     id="path160"
     style="fill:#000000;fill-opacity:0;fill-rule:evenodd;stroke:none;stroke-width:0.00262467"
     d="m 290.81175,134.07059 v 41.32275" /><path
     id="path162"
     style="fill:none;stroke:#1155cc;stroke-width:0.99999797;stroke-linecap:butt;stroke-linejoin:round;stroke-miterlimit:14.3355875;stroke-dasharray:none;stroke-opacity:1"
     d="m 290.81175,134.07059 v 37.89567" /><path
     id="path164"
     style="fill:#1155cc;fill-opacity:1;fill-rule:evenodd;stroke:#1155cc;stroke-width:0.99999797;stroke-linecap:butt;stroke-linejoin:miter;stroke-miterlimit:11.47371292;stroke-dasharray:none;stroke-opacity:1"
     d="m 290.81175,171.96626 -1.12459,-1.12459 1.12459,3.08978 1.12458,-3.08978 z" /><path
     id="path172"
     style="fill:#000000;fill-opacity:0;fill-rule:evenodd;stroke:none;stroke-width:0.00262467"
     d="m 313.06367,182.06262 -0.8189,14.83461" /><path
     id="path174"
     style="fill:none;stroke:#1155cc;stroke-width:0.99999797;stroke-linecap:butt;stroke-linejoin:round;stroke-miterlimit:14.3355875;stroke-dasharray:none;stroke-opacity:1"
     d="m 313.06367,182.06262 -0.63,11.41275" /><path
     id="path176"
     style="fill:#1155cc;fill-opacity:1;fill-rule:evenodd;stroke:#1155cc;stroke-width:0.99999797;stroke-linecap:butt;stroke-linejoin:miter;stroke-miterlimit:11.47371292;stroke-dasharray:none;stroke-opacity:1"
     d="m 312.43367,193.47537 -1.06088,-1.18486 0.95256,3.14704 1.29317,-3.02309 z" /><path
     id="path184"
     style="fill:#000000;fill-opacity:0;fill-rule:evenodd;stroke:none;stroke-width:0.00262467"
     d="m 332.94552,203.4484 -0.40944,6.51967" /><path
     id="path186"
     style="fill:none;stroke:#1155cc;stroke-width:0.99999797;stroke-linecap:butt;stroke-linejoin:round;stroke-miterlimit:14.3355875;stroke-dasharray:none;stroke-opacity:1"
     d="m 332.94552,203.4484 -0.19464,3.09931" /><path
     id="path188"
     style="fill:#1155cc;fill-opacity:1;fill-rule:evenodd;stroke:#1155cc;stroke-width:0.99999797;stroke-linecap:butt;stroke-linejoin:miter;stroke-miterlimit:11.47371292;stroke-dasharray:none;stroke-opacity:1"
     d="m 332.75088,206.54771 -1.0519,-1.19283 0.92872,3.15416 1.31603,-3.01318 z" /><path
     id="path196"
     style="fill:#000000;fill-opacity:0;fill-rule:evenodd;stroke:none;stroke-width:0.00262467"
     d="M 225.70164,260.77375 H 582.48833" /><path
     id="path198"
     style="fill:none;stroke:#595959;stroke-width:2.9999938;stroke-linecap:butt;stroke-linejoin:round;stroke-miterlimit:14.3355875;stroke-dasharray:none;stroke-opacity:1"
     d="M 235.98288,260.77375 H 572.20709" /><path
     id="path200"
     style="fill:#595959;fill-opacity:1;fill-rule:evenodd;stroke:#595959;stroke-width:2.9999938;stroke-linecap:butt;stroke-linejoin:miter;stroke-miterlimit:11.47371292;stroke-dasharray:none;stroke-opacity:1"
     d="m 235.98288,260.77375 3.37375,-3.37375 -9.2693,3.37375 9.2693,3.37375 z" /><path
     id="path202"
     style="fill:#595959;fill-opacity:1;fill-rule:evenodd;stroke:#595959;stroke-width:2.9999938;stroke-linecap:butt;stroke-linejoin:miter;stroke-miterlimit:11.47371292;stroke-dasharray:none;stroke-opacity:1"
     d="m 572.20709,260.77375 -3.37375,3.37375 9.26929,-3.37375 -9.26929,-3.37375 z" /><path
     id="path210"
     style="fill:#000000;fill-opacity:0;fill-rule:evenodd;stroke:none;stroke-width:0.00262467"
     d="m 273.44696,265.34591 h 239.77903 v 30.20467 H 273.44696 Z" /><text
     id="text220"
     style="font-variant:normal;font-weight:normal;font-size:18.66662788px;font-family:Arial;-inkscape-font-specification:ArialMT;writing-mode:lr-tb;fill:#000000;fill-opacity:1;fill-rule:nonzero;stroke:none;stroke-width:0.99999797"
     x="319.88071"
     y="292.26584"><tspan
       id="tspan218"
       y="292.26584"
       x="299.88071"
       style="font-style:normal;font-variant:normal;font-weight:normal;font-stretch:normal;font-family:sans-serif;-inkscape-font-specification:sans-serif;stroke-width:0.99999797">valor de la ponderación <tspan
   style="-inkscape-font-specification:'Times New Roman, Italic';font-family:'Times New Roman';font-weight:normal;font-style:italic;font-stretch:normal;font-variant:normal;font-size:18.66666667px;text-anchor:start;text-align:start;writing-mode:lr;font-variant-ligatures:normal;font-variant-caps:normal;font-variant-numeric:normal;font-feature-settings:normal"
   id="tspan877">w<tspan
   style="font-size:65%;baseline-shift:sub"
   id="tspan879">i</tspan></tspan> </tspan></text>
<path
     id="path238"
     style="fill:#000000;fill-opacity:0;fill-rule:evenodd;stroke:none;stroke-width:0.00262467"
     d="m 144.05876,114.91053 h 60.44083 v 30.20466 h -60.44083 z" /><text
     id="text248"
     style="font-variant:normal;font-weight:normal;font-size:18.66662788px;font-family:Arial;-inkscape-font-specification:ArialMT;writing-mode:lr-tb;fill:#000000;fill-opacity:1;fill-rule:nonzero;stroke:none;stroke-width:0.99999797"
     x="157.69081"
     y="141.83047"><tspan
       id="tspan246"
       y="141.83047"
       x="137.69081"
       style="font-style:normal;font-variant:normal;font-weight:normal;font-stretch:normal;font-family:sans-serif;-inkscape-font-specification:sans-serif;stroke-width:0.99999797">pérdida</tspan></text>
<path
     d="m 276.2887,80.472275 v 0 c 0,-5.563427 5.86569,-10.073467 13.1014,-10.073467 h 25.14457 v 0 h 57.36895 120.75947 c 3.47471,0 6.80711,1.061307 9.26411,2.950454 2.45697,1.889133 3.8373,4.451359 3.8373,7.123013 v 25.183675 0 15.1102 0 c 0,5.56343 -5.86571,10.07347 -13.10141,10.07347 H 371.90362 l 11.7293,101.47773 -69.09825,-101.47773 H 289.3901 c -7.23571,0 -13.1014,-4.51004 -13.1014,-10.07347 v 0 -15.1102 0 z"
     style="fill:#d9ead3;fill-opacity:1;fill-rule:evenodd;stroke:none;stroke-width:0.00299326"
     id="path256" /><path
     id="path258"
     style="fill:none;stroke:#595959;stroke-width:1.14191926;stroke-linecap:butt;stroke-linejoin:round;stroke-miterlimit:14.3355875;stroke-dasharray:none;stroke-opacity:1"
     d="m 275.47705,80.52047 v 0 c 0,-5.559644 5.88503,-10.066617 13.1446,-10.066617 h 25.22747 v 0 h 57.5581 121.15763 c 3.48616,0 6.82954,1.060585 9.29465,2.948447 2.46505,1.887849 3.84995,4.448333 3.84995,7.11817 v 25.16655 0 15.09993 0 c 0,5.55965 -5.88505,10.06662 -13.1446,10.06662 H 371.40722 l 11.76796,101.40874 -69.32606,-101.40874 h -25.22747 c -7.25957,0 -13.1446,-4.50697 -13.1446,-10.06662 v 0 -15.09993 0 z" /><text
     id="text268"
     style="font-variant:normal;font-weight:normal;font-size:18.66662788px;font-family:Arial;-inkscape-font-specification:ArialMT;writing-mode:lr-tb;fill:#000000;fill-opacity:1;fill-rule:nonzero;stroke:none;stroke-width:0.99999797"
     x="290.84351"
     y="96.539215"><tspan
       id="tspan266"
       y="96.539215"
       x="292.51016"
       style="font-style:normal;font-variant:normal;font-weight:normal;font-stretch:normal;font-family:sans-serif;-inkscape-font-specification:sans-serif;stroke-width:0.99999797">Llegaremos a ese punto</tspan></text>
<text
     id="text272"
     style="font-variant:normal;font-weight:normal;font-size:18.66662788px;font-family:Arial;-inkscape-font-specification:ArialMT;writing-mode:lr-tb;fill:#000000;fill-opacity:1;fill-rule:nonzero;stroke:none;stroke-width:0.99999797"
     x="388.98959"
     y="118.53917"><tspan
       id="tspan270"
       y="118.53917"
       x="318.98959"
       style="font-style:normal;font-variant:normal;font-weight:normal;font-stretch:normal;font-family:sans-serif;-inkscape-font-specification:sans-serif;stroke-width:0.99999797">de forma eficiente.</tspan></text>
</svg>