<?xml version="1.0" encoding="UTF-8" standalone="no"?>
<svg
   xmlns:dc="http://purl.org/dc/elements/1.1/"
   xmlns:cc="http://creativecommons.org/ns#"
   xmlns:rdf="http://www.w3.org/1999/02/22-rdf-syntax-ns#"
   xmlns:svg="http://www.w3.org/2000/svg"
   xmlns="http://www.w3.org/2000/svg"
   xmlns:sodipodi="http://sodipodi.sourceforge.net/DTD/sodipodi-0.dtd"
   xmlns:inkscape="http://www.inkscape.org/namespaces/inkscape"
   viewBox="0 0 583.55133 309.70544"
   height="309.70544"
   width="583.55133"
   xml:space="preserve"
   id="svg2"
   version="1.1"
   sodipodi:docname="LearningRateTooSmall.svg"
   inkscape:version="0.92.2pre0 (973e216, 2017-07-25)"><sodipodi:namedview
     pagecolor="#ffffff"
     bordercolor="#666666"
     borderopacity="1"
     objecttolerance="10"
     gridtolerance="10"
     guidetolerance="10"
     inkscape:pageopacity="0"
     inkscape:pageshadow="2"
     inkscape:window-width="1690"
     inkscape:window-height="967"
     id="namedview50"
     showgrid="false"
     inkscape:zoom="2.0460925"
     inkscape:cx="291.77567"
     inkscape:cy="154.85272"
     inkscape:window-x="0"
     inkscape:window-y="621"
     inkscape:window-maximized="0"
     inkscape:current-layer="svg2" /><metadata
     id="metadata8"><rdf:RDF><cc:Work
         rdf:about=""><dc:format>image/svg+xml</dc:format><dc:type
           rdf:resource="http://purl.org/dc/dcmitype/StillImage" /><dc:title /></cc:Work></rdf:RDF></metadata><desc
     id="desc3">La misma curva con forma de U. Muchos puntos están muy cerca entre sí y su rastro está progresando muy lentamente hacia la parte inferior de la U.</desc><defs
     id="defs6"><clipPath
       id="clipPath22"
       clipPathUnits="userSpaceOnUse"><path
         id="path20"
         d="M 0,0 H 365760 V 205740 H 0 Z" /></clipPath></defs><path
     id="path36"
     style="fill:#000000;fill-opacity:0;fill-rule:evenodd;stroke:none;stroke-width:0.00262467"
     d="M 210.63999,252.64384 209.28566,10.43961" /><path
     id="path38"
     style="fill:none;stroke:#595959;stroke-width:2.9999938;stroke-linecap:butt;stroke-linejoin:round;stroke-miterlimit:14.3355875;stroke-dasharray:none;stroke-opacity:1"
     d="M 210.58249,242.36276 209.34317,20.72069" /><path
     id="path40"
     style="fill:#595959;fill-opacity:1;fill-rule:evenodd;stroke:#595959;stroke-width:2.9999938;stroke-linecap:butt;stroke-linejoin:miter;stroke-miterlimit:11.47371292;stroke-dasharray:none;stroke-opacity:1"
     d="m 210.58249,242.36276 -3.39254,-3.35482 3.42552,9.25026 3.32187,-9.288 z" /><path
     id="path42"
     style="fill:#595959;fill-opacity:1;fill-rule:evenodd;stroke:#595959;stroke-width:2.9999938;stroke-linecap:butt;stroke-linejoin:miter;stroke-miterlimit:11.47371292;stroke-dasharray:none;stroke-opacity:1"
     d="m 209.34317,20.72069 3.39254,3.354826 -3.42553,-9.25028 -3.32185,9.288 z" /><path
     id="path50"
     style="fill:#000000;fill-opacity:0;fill-rule:evenodd;stroke:none;stroke-width:0.00262467"
     d="M 226.76463,271.21335 H 583.55132" /><path
     id="path52"
     style="fill:none;stroke:#595959;stroke-width:2.9999938;stroke-linecap:butt;stroke-linejoin:round;stroke-miterlimit:14.3355875;stroke-dasharray:none;stroke-opacity:1"
     d="M 237.04587,271.21335 H 573.27008" /><path
     id="path54"
     style="fill:#595959;fill-opacity:1;fill-rule:evenodd;stroke:#595959;stroke-width:2.9999938;stroke-linecap:butt;stroke-linejoin:miter;stroke-miterlimit:11.47371292;stroke-dasharray:none;stroke-opacity:1"
     d="m 237.04587,271.21335 3.37375,-3.37375 -9.26931,3.37375 9.26931,3.37375 z" /><path
     id="path56"
     style="fill:#595959;fill-opacity:1;fill-rule:evenodd;stroke:#595959;stroke-width:2.9999938;stroke-linecap:butt;stroke-linejoin:miter;stroke-miterlimit:11.47371292;stroke-dasharray:none;stroke-opacity:1"
     d="m 573.27008,271.21335 -3.37375,3.37375 9.2693,-3.37375 -9.2693,-3.37375 z" /><path
     id="path64"
     style="fill:#000000;fill-opacity:0;fill-rule:evenodd;stroke:none;stroke-width:0.00262467"
     d="m 274.50994,275.78552 h 239.77905 v 30.20467 H 274.50994 Z" /><text
     id="text74"
     style="font-variant:normal;font-weight:normal;font-size:18.66662788px;font-family:Arial;-inkscape-font-specification:ArialMT;writing-mode:lr-tb;fill:#000000;fill-opacity:1;fill-rule:nonzero;stroke:none;stroke-width:0.99999797"
     x="290.9437"
     y="302.70544"><tspan
       id="tspan72"
       y="302.70544"
       x="290.9437"
       style="font-style:normal;font-variant:normal;font-weight:normal;font-stretch:normal;font-family:sans-serif;-inkscape-font-specification:sans-serif;stroke-width:0.99999797">valor de la ponderación <tspan
   style="-inkscape-font-specification:'Times New Roman, Italic';font-family:'Times New Roman';font-weight:normal;font-style:italic;font-stretch:normal;font-variant:normal;font-size:18.66666667px;text-anchor:start;text-align:start;writing-mode:lr;font-variant-ligatures:normal;font-variant-caps:normal;font-variant-numeric:normal;font-feature-settings:normal"
   id="tspan860">w<tspan
   style="font-size:65%;baseline-shift:sub"
   id="tspan864">i</tspan></tspan> </tspan></text>
<path
     id="path92"
     style="fill:#000000;fill-opacity:0;fill-rule:evenodd;stroke:none;stroke-width:0.00262467"
     d="m 145.12176,125.35014 h 60.44082 v 30.20465 h -60.44082 z" /><text
     id="text102"
     style="font-variant:normal;font-weight:normal;font-size:18.66662788px;font-family:Arial;-inkscape-font-specification:ArialMT;writing-mode:lr-tb;fill:#000000;fill-opacity:1;fill-rule:nonzero;stroke:none;stroke-width:0.99999797"
     x="138.7538"
     y="152.2701"><tspan
       id="tspan100"
       y="152.2701"
       x="138.7538"
       style="font-style:normal;font-variant:normal;font-weight:normal;font-stretch:normal;font-family:sans-serif;-inkscape-font-specification:sans-serif;stroke-width:0.99999797">pérdida</tspan></text>
<path
     id="path112"
     style="fill:#000000;fill-opacity:0;fill-rule:evenodd;stroke:none;stroke-width:0.00262467"
     d="m 250.64946,33.007823 c 6.86928,26.300386 13.48748,122.586877 41.21572,157.802367 27.72824,35.21545 89.29985,62.40605 125.15374,53.49044 35.85387,-8.91565 69.78093,-70.54285 89.96948,-106.98426 20.18848,-36.44142 25.968,-93.053494 31.16159,-111.664201" /><path
     id="path114"
     style="fill:none;stroke:#595959;stroke-width:7.99998379;stroke-linecap:butt;stroke-linejoin:round;stroke-miterlimit:14.3355875;stroke-dasharray:none;stroke-opacity:1"
     d="m 250.64946,33.007823 c 6.86928,26.300386 13.48748,122.586877 41.21572,157.802367 27.72824,35.21545 89.29985,62.40605 125.15374,53.49044 35.85387,-8.91565 69.78093,-70.54285 89.96948,-106.98426 20.18848,-36.44142 25.968,-93.053494 31.16159,-111.664201" /><path
     d="m 262.41547,131.1559 v 0 c 0,-3.60941 2.92602,-6.53543 6.53543,-6.53543 v 0 c 1.73331,0 3.39561,0.68856 4.62125,1.91419 1.22562,1.22563 1.91416,2.88793 1.91416,4.62124 v 0 c 0,3.60941 -2.926,6.53541 -6.53541,6.53541 v 0 c -3.60941,0 -6.53543,-2.926 -6.53543,-6.53541 z"
     style="fill:#fff2cc;fill-opacity:1;fill-rule:evenodd;stroke:none;stroke-width:0.00262467"
     id="path120" /><path
     id="path122"
     style="fill:none;stroke:#595959;stroke-width:0.99999797;stroke-linecap:butt;stroke-linejoin:round;stroke-miterlimit:14.3355875;stroke-dasharray:none;stroke-opacity:1"
     d="m 262.41547,131.1559 v 0 c 0,-3.60941 2.92602,-6.53543 6.53543,-6.53543 v 0 c 1.73331,0 3.39561,0.68856 4.62125,1.91419 1.22562,1.22563 1.91416,2.88793 1.91416,4.62124 v 0 c 0,3.60941 -2.926,6.53541 -6.53541,6.53541 v 0 c -3.60941,0 -6.53543,-2.926 -6.53543,-6.53541 z" /><text
     id="text140"
     style="font-variant:normal;font-weight:normal;font-size:18.66662788px;font-family:Arial;-inkscape-font-specification:ArialMT;writing-mode:lr-tb;fill:#000000;fill-opacity:1;fill-rule:nonzero;stroke:none;stroke-width:0.99999797"
     x="287.32022"
     y="35.837231"><tspan
       id="tspan138"
       y="35.837231"
       x="287.32022"
       style="font-style:normal;font-variant:normal;font-weight:normal;font-stretch:normal;font-family:sans-serif;-inkscape-font-specification:sans-serif;stroke-width:0.99999797">¡Las tasas de aprendizaje</tspan></text>
<text
     id="text33"
     style="font-variant:normal;font-weight:normal;font-size:18.66662788px;font-family:Arial;-inkscape-font-specification:ArialMT;writing-mode:lr-tb;fill:#000000;fill-opacity:1;fill-rule:nonzero;stroke:none;stroke-width:0.99999797"
     x="287.32022"
     y="35.837231"><tspan
       id="tspan31"
       y="55.837231"
       x="287.32022"
       style="font-style:normal;font-variant:normal;font-weight:normal;font-stretch:normal;font-family:sans-serif;-inkscape-font-specification:sans-serif;stroke-width:0.99999797">pequeñas llevan mucho</tspan></text>
<text
     id="text37"
     style="font-variant:normal;font-weight:normal;font-size:18.66662788px;font-family:Arial;-inkscape-font-specification:ArialMT;writing-mode:lr-tb;fill:#000000;fill-opacity:1;fill-rule:nonzero;stroke:none;stroke-width:0.99999797"
     x="287.32022"
     y="35.837231"><tspan
       id="tspan35"
       y="75.837231"
       x="287.32022"
       style="font-style:normal;font-variant:normal;font-weight:normal;font-stretch:normal;font-family:sans-serif;-inkscape-font-specification:sans-serif;stroke-width:0.99999797">tiempo!</tspan></text>
<path
     d="m 262.41547,135.84881 v 0 c 0,-3.60942 2.92602,-6.53543 6.53543,-6.53543 v 0 c 1.73331,0 3.39561,0.68856 4.62125,1.91419 1.22562,1.22562 1.91416,2.88793 1.91416,4.62124 v 0 c 0,3.6094 -2.926,6.53541 -6.53541,6.53541 v 0 c -3.60941,0 -6.53543,-2.92601 -6.53543,-6.53541 z"
     style="fill:#fff2cc;fill-opacity:1;fill-rule:evenodd;stroke:none;stroke-width:0.00262467"
     id="path152" /><path
     id="path154"
     style="fill:none;stroke:#595959;stroke-width:0.99999797;stroke-linecap:butt;stroke-linejoin:round;stroke-miterlimit:14.3355875;stroke-dasharray:none;stroke-opacity:1"
     d="m 262.41547,135.84881 v 0 c 0,-3.60942 2.92602,-6.53543 6.53543,-6.53543 v 0 c 1.73331,0 3.39561,0.68856 4.62125,1.91419 1.22562,1.22562 1.91416,2.88793 1.91416,4.62124 v 0 c 0,3.6094 -2.926,6.53541 -6.53541,6.53541 v 0 c -3.60941,0 -6.53543,-2.92601 -6.53543,-6.53541 z" /><path
     d="m 263.89842,140.95903 v 0 c 0,-3.60941 2.926,-6.53542 6.53541,-6.53542 v 0 c 1.73331,0 3.39562,0.68856 4.62126,1.91418 1.22561,1.22563 1.91417,2.88794 1.91417,4.62124 v 0 c 0,3.6094 -2.92601,6.53542 -6.53543,6.53542 v 0 c -3.60941,0 -6.53541,-2.92602 -6.53541,-6.53542 z"
     style="fill:#fff2cc;fill-opacity:1;fill-rule:evenodd;stroke:none;stroke-width:0.00262467"
     id="path160" /><path
     id="path162"
     style="fill:none;stroke:#595959;stroke-width:0.99999797;stroke-linecap:butt;stroke-linejoin:round;stroke-miterlimit:14.3355875;stroke-dasharray:none;stroke-opacity:1"
     d="m 263.89842,140.95903 v 0 c 0,-3.60941 2.926,-6.53542 6.53541,-6.53542 v 0 c 1.73331,0 3.39562,0.68856 4.62126,1.91418 1.22561,1.22563 1.91417,2.88794 1.91417,4.62124 v 0 c 0,3.6094 -2.92601,6.53542 -6.53543,6.53542 v 0 c -3.60941,0 -6.53541,-2.92602 -6.53541,-6.53542 z" /><path
     d="m 263.89842,144.22674 v 0 c 0,-3.60941 2.926,-6.53543 6.53541,-6.53543 v 0 c 1.73331,0 3.39562,0.68856 4.62126,1.91419 1.22561,1.22563 1.91417,2.88793 1.91417,4.62124 v 0 c 0,3.60941 -2.92601,6.53541 -6.53543,6.53541 v 0 c -3.60941,0 -6.53541,-2.926 -6.53541,-6.53541 z"
     style="fill:#fff2cc;fill-opacity:1;fill-rule:evenodd;stroke:none;stroke-width:0.00262467"
     id="path168" /><path
     id="path170"
     style="fill:none;stroke:#595959;stroke-width:0.99999797;stroke-linecap:butt;stroke-linejoin:round;stroke-miterlimit:14.3355875;stroke-dasharray:none;stroke-opacity:1"
     d="m 263.89842,144.22674 v 0 c 0,-3.60941 2.926,-6.53543 6.53541,-6.53543 v 0 c 1.73331,0 3.39562,0.68856 4.62126,1.91419 1.22561,1.22563 1.91417,2.88793 1.91417,4.62124 v 0 c 0,3.60941 -2.92601,6.53541 -6.53543,6.53541 v 0 c -3.60941,0 -6.53541,-2.926 -6.53541,-6.53541 z" /><path
     d="m 0.49999897,52.736102 v 0 c 0,-7.256506 5.88256683,-13.13908 13.13908203,-13.13908 h 77.585144 v 0 h 38.881815 12.78212 c 3.48469,0 6.82668,1.384294 9.29074,3.848347 2.46404,2.464067 3.84835,5.80604 3.84835,9.290733 V 85.583808 L 256.27077,127.9697 156.02725,105.29243 v 0 c 0,7.25652 -5.88256,13.13908 -13.13909,13.13908 H 130.10604 91.224225 v 0 H 13.639081 c -7.2565152,0 -13.13908203,-5.88256 -13.13908203,-13.13908 v 0 -19.708622 0 z"
     style="fill:#fce5cd;fill-opacity:1;fill-rule:evenodd;stroke:none;stroke-width:0.00262467"
     id="path176" /><path
     id="path178"
     style="fill:none;stroke:#595959;stroke-width:0.99999797;stroke-linecap:butt;stroke-linejoin:round;stroke-miterlimit:14.3355875;stroke-dasharray:none;stroke-opacity:1"
     d="m 0.49999897,52.736102 v 0 c 0,-7.256506 5.88256683,-13.13908 13.13908203,-13.13908 h 77.585144 v 0 h 38.881815 12.78212 c 3.48469,0 6.82668,1.384294 9.29074,3.848347 2.46404,2.464067 3.84835,5.80604 3.84835,9.290733 V 85.583808 L 256.27077,127.9697 156.02725,105.29243 v 0 c 0,7.25652 -5.88256,13.13908 -13.13909,13.13908 H 130.10604 91.224225 v 0 H 13.639081 c -7.2565152,0 -13.13908203,-5.88256 -13.13908203,-13.13908 v 0 -19.708622 0 z" /><text
     id="text188"
     style="font-variant:normal;font-weight:normal;font-size:18.66662788px;font-family:Arial;-inkscape-font-specification:ArialMT;writing-mode:lr-tb;fill:#000000;fill-opacity:1;fill-rule:nonzero;stroke:none;stroke-width:0.99999797"
     x="24.854748"
     y="85.934235"><tspan
       id="tspan186"
       y="85.934235"
       x="11.521415"
       style="font-style:normal;font-variant:normal;font-weight:normal;font-stretch:normal;font-family:sans-serif;-inkscape-font-specification:sans-serif;stroke-width:0.99999797">punto de partida</tspan></text>
</svg>