<?xml version="1.0" encoding="UTF-8" standalone="no"?>
<svg
   xmlns:dc="http://purl.org/dc/elements/1.1/"
   xmlns:cc="http://creativecommons.org/ns#"
   xmlns:rdf="http://www.w3.org/1999/02/22-rdf-syntax-ns#"
   xmlns:svg="http://www.w3.org/2000/svg"
   xmlns="http://www.w3.org/2000/svg"
   xml:space="preserve"
   viewBox="174 127 1050 450"
   height="450"
   width="1050"
   y="0px"
   x="0px"
   id="Layer_1"
   version="1.1"><desc
     id="desc2">Asignación de un valor de string mediante codificación de un solo 1</desc><metadata
     id="metadata93"><rdf:RDF><cc:Work
         rdf:about=""><dc:format>image/svg+xml</dc:format><dc:type
           rdf:resource="http://purl.org/dc/dcmitype/StillImage" /><dc:title></dc:title></cc:Work></rdf:RDF></metadata><defs
     id="defs91" /><style
     id="style3"
     type="text/css">
	.ohe-st0{fill:#F4FF5F;}
	.ohe-st1{fill:#FFF2CC;stroke:#424242;stroke-miterlimit:10;}
	.ohe-st2{stroke:#424242;stroke-miterlimit:10;}
	.ohe-st3{fill:#bebebe;}
	.ohe-st4{font-family:'RobotoMono-Regular';}
	.ohe-st5{font-size:21px;}
	.ohe-st6{font-family:'Roboto-Regular';}
	.ohe-st7{font-size:18px;}
	.ohe-st8{fill:#d9ead3;stroke:#424242;stroke-miterlimit:10;}
	.ohe-st9{fill:#28C3FF;stroke:#28C3FF;stroke-miterlimit:10;}
	.ohe-st10{fill:none;stroke:#424242;stroke-width:2;stroke-miterlimit:10;}
	.ohe-st11{fill:#424242;}
</style><g
     transform="matrix(2.2353645,0,0,1.5044679,-404.40028,-37.68972)"
     id="g27"><path
       style="font-size:21px;font-family:Roboto-Regular;fill:#d9ead3;stroke:#424242;stroke-miterlimit:10"
       id="path29"
       d="m 454.4,240 h 69.4 v -15.6 l 28.1,31.2 -28.1,31.2 v -15.6 h -69.4 z"
       class="ohe-st5" /></g><text
     id="text842"
     y="352.42966"
     x="615.33435"
     style="font-style:normal;font-weight:normal;font-size:40px;line-height:125%;font-family:sans-serif;letter-spacing:0px;word-spacing:0px;fill:#000000;fill-opacity:1;stroke:none;stroke-width:1px;stroke-linecap:butt;stroke-linejoin:miter;stroke-opacity:1"
     xml:space="preserve"><tspan
       style="font-size:18.66666603px"
       y="352.42966"
       x="615.33435"
       id="tspan840">Ingeniería de atributos</tspan></text>
<rect
     style="fill:#f4ff5f"
     id="rect5"
     height="26.9"
     width="356.70001"
     class="ohe-st0"
     y="370.5"
     x="214" /><g
     id="g870"
     transform="matrix(1.4857112,0,0,1.0747203,-351.08038,-27.176083)"><g
       id="g15"
       transform="translate(80,22)"><path
         class="ohe-st1"
         d="m 423.9,263.9 v 0 c 0,6.6 8.4,11.9 18.7,11.9 h 22.5 l 24.9,65.7 36.9,-65.7 h 125.5 c 5,0 9.7,-1.3 13.2,-3.5 3.5,-2.2 5.5,-5.3 5.5,-8.4 v 0 0 -17.9 -29.7 c 0,-6.6 -8.4,-11.9 -18.7,-11.9 H 526.9 465.1 v 0 h -22.5 c -10.3,0 -18.7,5.3 -18.7,11.9 V 246 Z"
         id="path13"
         style="fill:#fff2cc;stroke:#424242;stroke-miterlimit:10" /></g><g
       id="g11"
       transform="translate(80,22)"><path
         class="ohe-st2"
         d="m 423.9,263.9 v 0 c 0,6.6 8.4,11.9 18.7,11.9 h 22.5 l 24.9,65.7 36.9,-65.7 h 125.5 c 5,0 9.7,-1.3 13.2,-3.5 3.5,-2.2 5.5,-5.3 5.5,-8.4 v 0 0 -17.9 -29.7 c 0,-6.6 -8.4,-11.9 -18.7,-11.9 H 526.9 465.1 v 0 h -22.5 c -10.3,0 -18.7,5.3 -18.7,11.9 V 246 Z"
         id="path17"
         style="stroke:#424242;stroke-miterlimit:10" /></g><g
       id="g22"
       transform="translate(80,22)"><path
         class="ohe-st1"
         d="m 423.9,263.9 v 0 c 0,6.6 8.4,11.9 18.7,11.9 h 22.5 l 24.9,65.7 36.9,-65.7 h 125.5 c 5,0 9.7,-1.3 13.2,-3.5 3.5,-2.2 5.5,-5.3 5.5,-8.4 v 0 0 -17.9 -29.7 c 0,-6.6 -8.4,-11.9 -18.7,-11.9 H 526.9 465.1 v 0 h -22.5 c -10.3,0 -18.7,5.3 -18.7,11.9 V 246 Z"
         id="path20"
         style="fill:#fff2cc;stroke:#424242;stroke-miterlimit:10" /></g></g><text
     style="line-height:0%"
     y="289.38199"
     x="204.43021"
     id="text19"><tspan
       style="font-size:21px;font-family:RobotoMono-Regular;fill:#bebebe"
       id="tspan21"
       class="ohe-st3 ohe-st4 ohe-st5"
       y="289.38199"
       x="204.43021">0 : {</tspan><tspan
       style="font-size:21px;font-family:RobotoMono-Regular;fill:#bebebe"
       id="tspan23"
       class="ohe-st3 ohe-st4 ohe-st5"
       y="314.582"
       x="204.43021">  house_info : {</tspan><tspan
       style="font-size:21px;font-family:RobotoMono-Regular;fill:#bebebe"
       id="tspan25"
       class="ohe-st3 ohe-st4 ohe-st5"
       y="339.78201"
       x="204.43021">    num_rooms: 6</tspan><tspan
       style="font-size:21px;font-family:RobotoMono-Regular;fill:#bebebe"
       id="tspan27"
       class="ohe-st3 ohe-st4 ohe-st5"
       y="364.98199"
       x="204.43021">    num_bedrooms: 3</tspan><tspan
       style="font-size:21px;font-family:RobotoMono-Regular"
       id="tspan29"
       class="ohe-st4 ohe-st5"
       y="390.18201"
       x="204.43021">    street_name: &quot;Shorebird Way&quot;</tspan><tspan
       style="font-size:21px;font-family:RobotoMono-Regular;fill:#bebebe"
       id="tspan31"
       class="ohe-st3 ohe-st4 ohe-st5"
       y="415.38199"
       x="204.43021">    num_basement_rooms: -1</tspan><tspan
       style="font-size:21px;font-family:RobotoMono-Regular;fill:#bebebe"
       id="tspan33"
       class="ohe-st3 ohe-st4 ohe-st5"
       y="440.582"
       x="204.43021">    ...</tspan><tspan
       style="font-size:21px;font-family:RobotoMono-Regular;fill:#bebebe"
       id="tspan35"
       class="ohe-st3 ohe-st4 ohe-st5"
       y="465.78198"
       x="204.43021">  }</tspan><tspan
       style="font-size:21px;font-family:RobotoMono-Regular;fill:#bebebe"
       id="tspan37"
       class="ohe-st3 ohe-st4 ohe-st5"
       y="490.98199"
       x="204.43021">}</tspan></text>
<text
     style="font-size:11.53249359px;line-height:0%"
     y="240.52068"
     x="441.04276"
     id="text39"
     transform="scale(0.96104112,1.0405382)"><tspan
       style="font-size:17.29874039px;font-family:Roboto-Regular"
       id="tspan41"
       class="ohe-st6 ohe-st7"
       y="240.52068"
       x="441.04276">Los atributos de string pueden controlarse</tspan></text>
<rect
     style="fill:#feff5f;fill-opacity:1;stroke:none;stroke-miterlimit:10"
     id="rect53"
     height="26.9"
     width="300"
     class="ohe-st9"
     y="267"
     x="848" /><text
     y="261.64471"
     x="846.31299"
     style="line-height:0%"
     id="text55"><tspan
       style="font-size:21px;font-family:RobotoMono-Regular"
       id="tspan57"
       class="ohe-st4 ohe-st5"
       y="261.64471"
       x="846.31299">atributo street_name</tspan><tspan
       id="tspan32"
       style="font-size:21px;font-family:sans-serif"> = </tspan><tspan
       style="font-size:21px;font-family:RobotoMono-Regular"
       id="tspan59"
       class="ohe-st4 ohe-st5"
       y="286.8447"
       x="846.31299">  [0, 0, ..., 0, <tspan
   id="tspan887"
   style="font-style:normal;font-variant:normal;font-weight:normal;font-stretch:normal;font-family:sans-serif;-inkscape-font-specification:sans-serif">1, 0, ...,</tspan> 0]</tspan></text>
<g
     transform="translate(130,22)"
     id="g61"><g
       id="g63"><line
         class="ohe-st10"
         x1="735.40002"
         y1="315"
         x2="1052.6"
         y2="315"
         id="line65"
         style="fill:none;stroke:#424242;stroke-width:2;stroke-miterlimit:10" /><g
         id="g67"><polygon
           class="ohe-st11"
           points="738.3,325 721,315 738.3,305 "
           id="polygon69"
           style="fill:#424242" /></g><g
         id="g71"><polygon
           class="ohe-st11"
           points="1049.7,325 1067,315 1049.7,305 "
           id="polygon73"
           style="fill:#424242" /></g></g></g><text
     y="350.78"
     x="906.44843"
     transform="scale(0.96104112,1.0405382)"
     class="ohe-st6 ohe-st7"
     id="text75"
     style="font-size:17.29874039px;line-height:0%;font-family:Roboto-Regular;stroke-width:0.96104109">V: número de elementos vocab únicos (calles)</text>
<g
     transform="matrix(1.2544121,0,0,1,-70.22782,28)"
     id="g77"><path
       style="fill:#fff2cc;stroke:#424242;stroke-miterlimit:10"
       id="path79"
       d="m 774.7,456.1 v 0 c 0,-6.7 -8.4,-12.2 -18.7,-12.2 l -38.1,0.3 19.4,-185.7 -37.4,184.7 -153.6,0.7 c -5,0 -9.7,1.3 -13.2,3.6 -3.5,2.3 -5.5,5.4 -5.5,8.6 v 0 0 18.3 30.5 c 0,6.7 8.4,12.2 18.7,12.2 h 125.5 61.8 v 0 h 22.5 c 10.3,0 18.7,-5.5 18.7,-12.2 v -30.5 -18.3 z"
       class="ohe-st1" /></g><text
     style="font-size:11.53249359px;line-height:0%"
     y="473.79343"
     x="659.77368"
     id="text81"
     transform="scale(0.96104112,1.0405382)"><tspan
       style="font-weight:bold;font-size:17.29874039px;font-family:Roboto-Regular"
       id="tspan83"
       class="ohe-st6 ohe-st7"
       y="473.79343"
       x="659.77368">Codificación de un solo 1</tspan><tspan
       style="font-size:17.29874039px;font-family:Roboto-Regular"
       id="tspan85"
       class="ohe-st6 ohe-st7"
       y="494.55188"
       x="659.77368">Tiene un 1 para Shorebird Way</tspan><tspan
       style="font-size:17.29874039px;font-family:Roboto-Regular"
       id="tspan87"
       class="ohe-st6 ohe-st7"
       y="515.3103"
       x="659.77368">y 0 para el resto.</tspan></text>
<rect
     style="fill:#c4eaf9;fill-opacity:1;stroke:#000000;stroke-width:1.35987484;stroke-miterlimit:4;stroke-dasharray:none;stroke-opacity:1"
     id="rect858"
     width="412.43671"
     height="55.565941"
     x="205.75636"
     y="146.45612"
     ry="15.72621" /><text
     xml:space="preserve"
     style="font-style:normal;font-weight:normal;font-size:40px;line-height:0%;font-family:sans-serif;letter-spacing:0px;word-spacing:0px;fill:#000000;fill-opacity:1;stroke:none;stroke-width:1px;stroke-linecap:butt;stroke-linejoin:miter;stroke-opacity:1"
     x="236.57643"
     y="187.04904"
     id="text856"><tspan
       id="tspan854"
       x="236.57643"
       y="187.04904">Datos sin procesar</tspan></text>
<rect
     ry="15.86634"
     y="146.20856"
     x="877.63672"
     height="56.061066"
     width="203.66046"
     id="rect892"
     style="fill:#c4eaf9;fill-opacity:1;stroke:#000000;stroke-width:0.9598425;stroke-miterlimit:4;stroke-dasharray:none;stroke-opacity:1" /><text
     id="text896"
     y="187.04904"
     x="898.7478"
     style="font-style:normal;font-weight:normal;font-size:40px;line-height:0%;font-family:sans-serif;letter-spacing:0px;word-spacing:0px;fill:#000000;fill-opacity:1;stroke:none;stroke-width:1px;stroke-linecap:butt;stroke-linejoin:miter;stroke-opacity:1"
     xml:space="preserve"><tspan
       y="187.04904"
       x="898.7478"
       id="tspan894">Atributo</tspan></text>
<text
     transform="scale(0.96104112,1.0405382)"
     id="text874"
     x="441.04276"
     y="257.81946"
     style="font-size:11.53249359px;line-height:0%"><tspan
       x="441.04276"
       y="257.81946"
       class="ohe-st6 ohe-st7"
       id="tspan872"
       style="font-size:17.29874039px;font-family:Roboto-Regular">mediante codificación de un solo 1.</tspan></text>
</svg>