<?xml version="1.0" encoding="UTF-8" standalone="no"?>
<svg
   xmlns:dc="http://purl.org/dc/elements/1.1/"
   xmlns:cc="http://creativecommons.org/ns#"
   xmlns:rdf="http://www.w3.org/1999/02/22-rdf-syntax-ns#"
   xmlns:svg="http://www.w3.org/2000/svg"
   xmlns="http://www.w3.org/2000/svg"
   version="1.1"
   id="svg2"
   xml:space="preserve"
   width="844.95355"
   height="373.86859"
   viewBox="0 0 844.95355 373.86859"><desc
     id="desc2">La función de pérdida para el conjunto de entrenamiento se reduce gradualmente. Por el contrario, la función de pérdida para el conjunto de validación se reduce, pero luego comienza a aumentar.</desc><metadata
     id="metadata8"><rdf:RDF><cc:Work
         rdf:about=""><dc:format>image/svg+xml</dc:format><dc:type
           rdf:resource="http://purl.org/dc/dcmitype/StillImage" /><dc:title></dc:title></cc:Work></rdf:RDF></metadata><defs
     id="defs6"><clipPath
       clipPathUnits="userSpaceOnUse"
       id="clipPath22"><path
         d="M 0,0 H 365760 V 205740 H 0 Z"
         id="path20" /></clipPath></defs><path
     d="m 83.598289,7.5686267 c 13.294064,6.4071463 54.231001,23.8612393 79.764401,38.4428253 25.53339,14.581587 54.02181,32.476946 73.43597,49.046692 19.41416,16.569756 27.43323,29.824826 43.04903,50.371826 15.61581,20.54701 36.29612,55.677 50.64577,72.91021 14.34968,17.23327 20.25882,20.76833 35.45232,30.48924 15.19345,9.72092 35.23958,19.22003 55.70852,27.83619 20.4689,8.61617 41.57104,17.45364 67.1049,23.86078 25.53383,6.40716 55.92164,11.04696 86.09807,14.58204 30.17645,3.5351 54.86647,5.74456 94.96046,6.62844 40.09399,0.88391 121.33634,-1.10424 145.60364,-1.3251"
     style="fill:#000000;fill-opacity:0;fill-rule:evenodd;stroke:none;stroke-width:0.00262467"
     id="path36" /><path
     d="m 83.598289,7.5686267 c 13.294064,6.4071463 54.231001,23.8612393 79.764401,38.4428253 25.53339,14.581587 54.02181,32.476946 73.43597,49.046692 19.41416,16.569756 27.43323,29.824826 43.04903,50.371826 15.61581,20.54701 36.29612,55.677 50.64577,72.91021 14.34968,17.23327 20.25882,20.76833 35.45232,30.48924 15.19345,9.72092 35.23958,19.22003 55.70852,27.83619 20.4689,8.61617 41.57104,17.45364 67.1049,23.86078 25.53383,6.40716 55.92164,11.04696 86.09807,14.58204 30.17645,3.5351 54.86647,5.74456 94.96046,6.62844 40.09399,0.88391 121.33634,-1.10424 145.60364,-1.3251"
     style="fill:none;stroke:#1155cc;stroke-width:3.99999189;stroke-linecap:butt;stroke-linejoin:round;stroke-miterlimit:8;stroke-dasharray:none;stroke-opacity:1"
     id="path38" /><path
     d="M 83.598289,1.8179868 C 104.01638,11.180373 175.58512,42.033946 206.10681,57.992265 c 30.52169,15.95832 41.04572,25.319813 60.62172,39.575639 19.57596,14.255836 36.41606,32.341616 56.83413,45.959336 20.41807,13.61773 42.7308,25.108 65.67438,35.74702 22.94355,10.63903 44.41243,20.00184 71.98696,28.08712 27.57452,8.08532 69.25323,16.80781 93.46016,20.42464 24.20696,3.61679 33.46849,2.76556 51.78147,1.2762 18.31303,-1.48936 37.88945,-5.74428 58.09665,-10.21231 20.20724,-4.46804 43.57076,-10.85085 63.14678,-16.59597 19.57596,-5.74516 42.52117,-13.61905 54.30907,-17.87484 11.7879,-4.2558 13.68165,-6.38325 16.41794,-7.65988"
     style="fill:#000000;fill-opacity:0;fill-rule:evenodd;stroke:none;stroke-width:0.00262467"
     id="path46" /><path
     d="M 83.598289,1.8179868 C 104.01638,11.180373 175.58512,42.033946 206.10681,57.992265 c 30.52169,15.95832 41.04572,25.319813 60.62172,39.575639 19.57596,14.255836 36.41606,32.341616 56.83413,45.959336 20.41807,13.61773 42.7308,25.108 65.67438,35.74702 22.94355,10.63903 44.41243,20.00184 71.98696,28.08712 27.57452,8.08532 69.25323,16.80781 93.46016,20.42464 24.20696,3.61679 33.46849,2.76556 51.78147,1.2762 18.31303,-1.48936 37.88945,-5.74428 58.09665,-10.21231 20.20724,-4.46804 43.57076,-10.85085 63.14678,-16.59597 19.57596,-5.74516 42.52117,-13.61905 54.30907,-17.87484 11.7879,-4.2558 13.68165,-6.38325 16.41794,-7.65988"
     style="fill:none;stroke:#cc0000;stroke-width:3.99999189;stroke-linecap:butt;stroke-linejoin:round;stroke-miterlimit:8;stroke-dasharray:none;stroke-opacity:1"
     id="path48" /><path
     d="m 184.77918,199.58022 h 130.20447 v 32.12592 H 184.77918 Z"
     style="fill:#000000;fill-opacity:0;fill-rule:evenodd;stroke:none;stroke-width:0.00262467"
     id="path56" /><text
     y="226.50017"
     x="127.1125"
     style="font-variant:normal;font-weight:normal;font-size:18.66662788px;font-family:Roboto;-inkscape-font-specification:Roboto-Regular;writing-mode:lr-tb;fill:#1155cc;fill-opacity:1;fill-rule:nonzero;stroke:none;stroke-width:0.99999797"
     id="text66"><tspan
       style="font-style:normal;font-variant:normal;font-weight:normal;font-stretch:normal;font-family:sans-serif;-inkscape-font-specification:sans-serif;stroke-width:0.99999797"
       x="127.1125"
       y="226.50017"
       id="tspan64">Datos de entrenamiento</tspan></text>
<path
     d="m 466.59488,167.58029 h 162.36188 v 35.46449 H 466.59488 Z"
     style="fill:#000000;fill-opacity:0;fill-rule:evenodd;stroke:none;stroke-width:0.00262467"
     id="path76" /><text
     y="194.50023"
     x="475.59488"
     style="font-variant:normal;font-weight:normal;font-size:18.66662788px;font-family:Roboto;-inkscape-font-specification:Roboto-Regular;writing-mode:lr-tb;fill:#cc0000;fill-opacity:1;fill-rule:nonzero;stroke:none;stroke-width:0.99999797"
     id="text86"><tspan
       style="font-style:normal;font-variant:normal;font-weight:normal;font-stretch:normal;font-family:sans-serif;-inkscape-font-specification:sans-serif;stroke-width:0.99999797"
       x="475.59488"
       y="194.50023"
       id="tspan84">Datos de validación</tspan></text>
<path
     d="M 76.703158,333.43559 H 840.95355"
     style="fill:#000000;fill-opacity:0;fill-rule:evenodd;stroke:none;stroke-width:0.00262467"
     id="path96" /><path
     d="M 76.703158,333.43559 H 822.95359"
     style="fill:none;stroke:#595959;stroke-width:2.9999938;stroke-linecap:butt;stroke-linejoin:round;stroke-miterlimit:8;stroke-dasharray:none;stroke-opacity:1"
     id="path98" /><path
     d="m 822.95359,338.39078 13.61423,-4.95519 -13.61423,-4.95518 z"
     style="fill:#595959;fill-opacity:1;fill-rule:evenodd;stroke:#595959;stroke-width:2.9999938;stroke-linecap:butt;stroke-linejoin:miter;stroke-miterlimit:10;stroke-dasharray:none;stroke-opacity:1"
     id="path100" /><path
     d="m 391.99924,338.40409 h 103.9368 v 35.46449 h -103.9368 z"
     style="fill:#000000;fill-opacity:0;fill-rule:evenodd;stroke:none;stroke-width:0.00262467"
     id="path108" /><text
     y="365.32401"
     x="400.99921"
     style="font-variant:normal;font-weight:normal;font-size:18.66662788px;font-family:Arial;-inkscape-font-specification:ArialMT;writing-mode:lr-tb;fill:#000000;fill-opacity:1;fill-rule:nonzero;stroke:none;stroke-width:0.99999797"
     id="text118"><tspan
       style="font-style:normal;font-variant:normal;font-weight:normal;font-stretch:normal;font-family:sans-serif;-inkscape-font-specification:sans-serif;stroke-width:0.99999797"
       x="400.99921"
       y="365.32401"
       id="tspan116">Iteraciones</tspan></text>
<path
     d="M 77.520098,333.67443 V 1.1711735"
     style="fill:#000000;fill-opacity:0;fill-rule:evenodd;stroke:none;stroke-width:0.00262467"
     id="path128" /><path
     d="M 77.520098,333.67443 V 19.171133"
     style="fill:none;stroke:#000000;stroke-width:2.9999938;stroke-linecap:butt;stroke-linejoin:round;stroke-miterlimit:8;stroke-dasharray:none;stroke-opacity:1"
     id="path130" /><path
     d="M 82.475285,19.171133 77.520098,5.5568667 72.564912,19.171133 Z"
     style="fill:#000000;fill-opacity:1;fill-rule:evenodd;stroke:#000000;stroke-width:2.9999938;stroke-linecap:butt;stroke-linejoin:miter;stroke-miterlimit:10;stroke-dasharray:none;stroke-opacity:1"
     id="path132" /><path
     d="m 16,146.38873 h 59.369959 v 35.46449 H 16 Z"
     style="fill:#000000;fill-opacity:0;fill-rule:evenodd;stroke:none;stroke-width:0.00262467"
     id="path140" /><text
     y="173.30865"
     x="3.3333335"
     style="font-variant:normal;font-weight:normal;font-size:18.66662788px;font-family:Arial;-inkscape-font-specification:ArialMT;writing-mode:lr-tb;fill:#000000;fill-opacity:1;fill-rule:nonzero;stroke:none;stroke-width:0.99999797"
     id="text150"><tspan
       style="font-style:normal;font-variant:normal;font-weight:normal;font-stretch:normal;font-family:sans-serif;-inkscape-font-specification:sans-serif;stroke-width:0.99999797"
       x="3.3333335"
       y="173.30865"
       id="tspan148">Pérdida</tspan></text>
</svg>